<svg aria-hidden="true" style="position: absolute; width: 0; height: 0; overflow: hidden;" version="1.1" xmlns="http://www.w3.org/2000/svg" xmlns:xlink="http://www.w3.org/1999/xlink">
<defs>
<symbol id="icon-spoon" viewBox="0 0 32 32">
<path fill="#fd9222" style="fill: var(--color1, #fd9222)" d="M15.373 13.835c-0.837-1.010-1.344-2.319-1.344-3.746 0-0.002 0-0.003 0-0.005v0c0-4.942 5.921-9.877 11.842-9.877 3.27 0.001 5.921 2.652 5.921 5.922v0c0 5.922-4.934 11.845-9.881 11.845-0.001 0-0.002 0-0.003 0-1.428 0-2.737-0.508-3.756-1.353l0.010 0.008-14.581 14.584c-0.352 0.328-0.826 0.53-1.347 0.53-1.092 0-1.977-0.885-1.977-1.977 0-0.521 0.201-0.995 0.531-1.348l-0.001 0.001 14.585-14.584z"></path>
</symbol>
<symbol id="icon-dolar" viewBox="0 0 32 32">
<path fill="#fd9222" style="fill: var(--color1, #fd9222)" d="M16 0.762c-8.381 0-15.238 6.857-15.238 15.238s6.857 15.238 15.238 15.238 15.238-6.857 15.238-15.238-6.857-15.238-15.238-15.238zM16 28.191c-6.705 0-12.191-5.486-12.191-12.191s5.486-12.191 12.191-12.191 12.191 5.486 12.191 12.191-5.486 12.191-12.191 12.191z"></path>
<path fill="#fd9222" style="fill: var(--color1, #fd9222)" d="M17.981 14.477h-3.961c-0.762 0-1.371-0.61-1.371-1.371 0-0.762 0.609-1.371 1.371-1.371h5.638c0.914 0 1.523-0.61 1.523-1.525s-0.609-1.523-1.523-1.523h-2.134v-1.371c0-0.914-0.609-1.523-1.523-1.523s-1.523 0.609-1.523 1.523v1.371h-0.457c-2.44 0.002-4.417 1.979-4.419 4.419v0c0.003 2.439 1.98 4.416 4.419 4.418h3.809c0.762 0 1.371 0.61 1.371 1.371 0 0.762-0.609 1.371-1.371 1.371h-5.638c-0.914 0-1.525 0.61-1.525 1.525s0.61 1.523 1.525 1.523h2.286v1.371c0 0.914 0.609 1.523 1.523 1.523s1.523-0.609 1.523-1.523v-1.371h0.457c2.44-0.002 4.417-1.979 4.419-4.419v-0c-0.003-2.439-1.98-4.416-4.419-4.418h-0z"></path>
</symbol>
<symbol id="icon-chokolate" viewBox="0 0 32 32">
<path fill="#000" style="fill: var(--color2, #000)" d="M13.511 0.472l8.602 8.613 0.091-0.091c0.176-0.173 0.418-0.279 0.684-0.279 0.259 0 0.494 0.101 0.669 0.265l-0.001-0.001 0.998 0.998c0.349 0.349 0.36 0.88 0.095 1.25l-0.005 0.008-0.163 0.219 7.040 7.040c0.629 0.629 0.629 1.634 0 2.263l-10.777 10.777c-0.629 0.629-1.634 0.629-2.263 0l-5.082-5.082c-0.178 0.223-0.449 0.365-0.754 0.365-0.266 0-0.508-0.108-0.682-0.284l-2.971-2.971c-0.173-0.176-0.279-0.418-0.279-0.684 0-0.259 0.101-0.494 0.265-0.669l-0.001 0.001 0.007-0.008 0.088-0.087-8.602-8.602c-0.629-0.629-0.629-1.634 0-2.263l10.777-10.777c0.629-0.629 1.634-0.629 2.263 0v0.001zM21.033 10.163l-2.007-2.006c-0.123-0.127-0.295-0.206-0.486-0.206s-0.363 0.079-0.486 0.205l-4.092 4.092c-0.126 0.126-0.205 0.299-0.205 0.491s0.078 0.366 0.205 0.491l1.999 1.999 0.697-0.697-1.789-1.789 3.669-3.68 1.793 1.799 0.701-0.701zM15.232 15.96l-2.005-2.005c-0.123-0.127-0.295-0.206-0.486-0.206s-0.363 0.079-0.486 0.205l-4.103 4.103c-0.274 0.263-0.274 0.697 0 0.971l2.002 2.002 0.704-0.704-1.794-1.787 3.68-3.669 1.787 1.786 0.699-0.698zM7.797 7.078l4.091 4.091c0.274 0.274 0.709 0.274 0.971-0.011l4.091-4.091c0.127-0.121 0.206-0.291 0.206-0.479 0-0 0-0 0-0.001v0h0.011c0-0.171-0.069-0.354-0.206-0.491l-4.091-4.091c-0.125-0.127-0.299-0.206-0.491-0.206s-0.366 0.079-0.491 0.205l-0 0-4.091 4.103c-0.274 0.263-0.274 0.697 0 0.971zM2.002 12.872l4.091 4.091c0.274 0.274 0.709 0.274 0.971 0l4.091-4.091c0.127-0.121 0.206-0.291 0.206-0.48 0-0.004-0-0.008-0-0.012v0.001h0.011c0-0.183-0.069-0.354-0.206-0.491l-4.091-4.091c-0.123-0.127-0.295-0.206-0.486-0.206s-0.363 0.079-0.486 0.205l-4.103 4.103c-0.274 0.263-0.274 0.697 0 0.971zM9.926 22.877l2.699 2.701 11.013-14.903-0.749-0.749-12.963 12.951z"></path>
<path fill="#fd9222" style="fill: var(--color1, #fd9222)" d="M13.511 0.472l8.602 8.613 0.091-0.091c0.176-0.173 0.418-0.279 0.684-0.279 0.259 0 0.494 0.101 0.669 0.265l-0.001-0.001 0.998 0.998c0.349 0.349 0.36 0.88 0.095 1.25l-0.005 0.008-0.163 0.219 7.040 7.040c0.629 0.629 0.629 1.634 0 2.263l-10.777 10.777c-0.629 0.629-1.634 0.629-2.263 0l-5.082-5.082c-0.178 0.223-0.449 0.365-0.754 0.365-0.266 0-0.508-0.108-0.682-0.284l-2.971-2.971c-0.173-0.176-0.279-0.418-0.279-0.684 0-0.259 0.101-0.494 0.265-0.669l-0.001 0.001 0.007-0.008 0.088-0.087-8.602-8.602c-0.629-0.629-0.629-1.634 0-2.263l10.777-10.777c0.629-0.629 1.634-0.629 2.263 0v0.001zM21.033 10.163l-2.007-2.006c-0.123-0.127-0.295-0.206-0.486-0.206s-0.363 0.079-0.486 0.205l-4.092 4.092c-0.126 0.126-0.205 0.299-0.205 0.491s0.078 0.366 0.205 0.491l1.999 1.999 0.697-0.697-1.789-1.789 3.669-3.68 1.793 1.799 0.701-0.701zM15.232 15.96l-2.005-2.005c-0.123-0.127-0.295-0.206-0.486-0.206s-0.363 0.079-0.486 0.205l-4.103 4.103c-0.274 0.263-0.274 0.697 0 0.971l2.002 2.002 0.704-0.704-1.794-1.787 3.68-3.669 1.787 1.786 0.699-0.698zM7.797 7.078l4.091 4.091c0.274 0.274 0.709 0.274 0.971-0.011l4.091-4.091c0.127-0.121 0.206-0.291 0.206-0.479 0-0 0-0 0-0.001v0h0.011c0-0.171-0.069-0.354-0.206-0.491l-4.091-4.091c-0.125-0.127-0.299-0.206-0.491-0.206s-0.366 0.079-0.491 0.205l-0 0-4.091 4.103c-0.274 0.263-0.274 0.697 0 0.971zM2.002 12.872l4.091 4.091c0.274 0.274 0.709 0.274 0.971 0l4.091-4.091c0.127-0.121 0.206-0.291 0.206-0.48 0-0.004-0-0.008-0-0.012v0.001h0.011c0-0.183-0.069-0.354-0.206-0.491l-4.091-4.091c-0.123-0.127-0.295-0.206-0.486-0.206s-0.363 0.079-0.486 0.205l-4.103 4.103c-0.274 0.263-0.274 0.697 0 0.971zM9.926 22.877l2.699 2.701 11.013-14.903-0.749-0.749-12.963 12.951z"></path>
</symbol>
</defs>
</svg>
